<svg xmlns="http://www.w3.org/2000/svg" width="512" height="512" viewBox="0 0 512 512" role="img" aria-label="MakiLove App-Icon">
  <title>MakiLove — App-Icon</title>
  <defs>
    <linearGradient id="redGrad" x1="0.15" y1="0" x2="0.85" y2="1">
      <stop offset="0" stop-color="#D42028"/>
      <stop offset="1" stop-color="#770110"/>
    </linearGradient>
    <radialGradient id="rice" cx="0.42" cy="0.38" r="0.72">
      <stop offset="0" stop-color="#FFFFFF"/>
      <stop offset="1" stop-color="#ECE8E0"/>
    </radialGradient>
    <radialGradient id="nori" cx="0.42" cy="0.38" r="0.75">
      <stop offset="0" stop-color="#2C3033"/>
      <stop offset="1" stop-color="#14161A"/>
    </radialGradient>
    <g id="maki">
      <circle r="150" fill="url(#nori)"/>
      <circle r="134" fill="url(#rice)"/>
      <g fill="#F2F0EA" stroke="#D9D4C8" stroke-width="1" opacity="0.92">
        <ellipse rx="13" ry="7" transform="translate(126,0) rotate(90)"/>
        <ellipse rx="13" ry="7" transform="translate(95.3,55) rotate(120)"/>
        <ellipse rx="13" ry="7" transform="translate(63,109.1) rotate(150)"/>
        <ellipse rx="13" ry="7" transform="translate(0,110) rotate(180)"/>
        <ellipse rx="13" ry="7" transform="translate(-63,109.1) rotate(210)"/>
        <ellipse rx="13" ry="7" transform="translate(-95.3,55) rotate(240)"/>
        <ellipse rx="13" ry="7" transform="translate(-126,0) rotate(270)"/>
        <ellipse rx="13" ry="7" transform="translate(-95.3,-55) rotate(300)"/>
        <ellipse rx="13" ry="7" transform="translate(-63,-109.1) rotate(330)"/>
        <ellipse rx="13" ry="7" transform="translate(0,-110) rotate(0)"/>
        <ellipse rx="13" ry="7" transform="translate(63,-109.1) rotate(30)"/>
        <ellipse rx="13" ry="7" transform="translate(95.3,-55) rotate(60)"/>
      </g>
      <path transform="translate(0,-4) scale(1.7)" fill="url(#redGrad)"
        d="M0 -22 C -10 -40 -40 -34 -40 -8 C -40 12 -18 28 0 40 C 18 28 40 12 40 -8 C 40 -34 10 -40 0 -22 Z"/>
      <path transform="translate(0,-4) scale(1.7)" fill="#FFFFFF" opacity="0.16"
        d="M -14 -20 C -22 -22 -30 -14 -29 -4 C -28 2 -22 8 -16 12 C -22 2 -22 -12 -14 -20 Z"/>
    </g>
  </defs>

  <rect x="0" y="0" width="512" height="512" rx="115" fill="url(#redGrad)"/>
  <rect x="0" y="0" width="512" height="256" rx="115" fill="#FFFFFF" opacity="0.06"/>
  <ellipse cx="256" cy="272" rx="204" ry="204" fill="#000000" opacity="0.16"/>
  <g transform="translate(256,256) scale(1.32)">
    <use href="#maki"/>
  </g>
</svg>
